<?xml version="1.0" encoding="UTF-8"?>
<svg xmlns="http://www.w3.org/2000/svg" xmlns:xlink="http://www.w3.org/1999/xlink" viewBox="0 0 100 100" width="100px" height="100px">
<g id="surface25874698">
<path style=" stroke:none;fill-rule:nonzero;fill:rgb(100%,100%,100%);fill-opacity:1;" d="M 42 6 C 23.246094 6 8 21.246094 8 40 C 8 58.753906 23.246094 74 42 74 C 49.425781 74 56.277344 71.582031 61.875 67.53125 L 88.171875 93.828125 L 93.828125 88.171875 L 67.773438 62.117188 C 72.886719 56.164062 76 48.445312 76 40 C 76 21.246094 60.753906 6 42 6 Z M 42 10 C 58.59375 10 72 23.40625 72 40 C 72 56.59375 58.59375 70 42 70 C 25.40625 70 12 56.59375 12 40 C 12 23.40625 25.40625 10 42 10 Z M 42 10 "/>
</g>
</svg>
